<?xml version="1.0" encoding="UTF-8"?>
<svg xmlns="http://www.w3.org/2000/svg" width="800" height="600" viewBox="0 0 800 600">
<rect width="100%" height="100%" fill="#fffef5"/>
<circle cx="400" cy="380" r="103.49999999999999" fill="#000000" fill-opacity="1" stroke="#333" stroke-width="2"/>
<circle cx="400" cy="380" r="96.6" fill="#ffffff" fill-opacity="1" stroke="#333" stroke-width="2"/>
<circle cx="400" cy="245" r="85" fill="#000000" fill-opacity="1" stroke="#333" stroke-width="2"/>
<circle cx="400" cy="245" r="79" fill="#ffffff" fill-opacity="1" stroke="#333" stroke-width="2"/>
<circle cx="372" cy="255" r="8" fill="#000000" fill-opacity="1" stroke="#333" stroke-width="2"/>
<circle cx="428" cy="255" r="8" fill="#000000" fill-opacity="1" stroke="#333" stroke-width="2"/>
<circle cx="400" cy="278" r="8.4" fill="#ff9eb5" fill-opacity="1" stroke="#333" stroke-width="2"/>
<rect x="386" y="288.5" width="16" height="3" fill="#000000" fill-opacity="1" stroke="#333" stroke-width="2"/>
<rect x="398" y="288.5" width="16" height="3" fill="#000000" fill-opacity="1" stroke="#333" stroke-width="2"/>
<rect x="332.5" y="273.5" width="45" height="3" fill="#000000" fill-opacity="1" stroke="#333" stroke-width="2"/>
<rect x="332.5" y="288.5" width="45" height="3" fill="#000000" fill-opacity="1" stroke="#333" stroke-width="2"/>
<rect x="422.5" y="273.5" width="45" height="3" fill="#000000" fill-opacity="1" stroke="#333" stroke-width="2"/>
<rect x="422.5" y="288.5" width="45" height="3" fill="#000000" fill-opacity="1" stroke="#333" stroke-width="2"/>
<rect x="398.5" y="273" width="3" height="18" fill="#000000" fill-opacity="1" stroke="#333" stroke-width="2"/>
<rect x="390.5" y="281" width="3" height="22" fill="#000000" fill-opacity="1" stroke="#333" stroke-width="2"/>
<rect x="406.5" y="281" width="3" height="22" fill="#000000" fill-opacity="1" stroke="#333" stroke-width="2"/>
<rect x="314.5" y="270.5" width="55" height="3" fill="#000000" fill-opacity="1" stroke="#333" stroke-width="2"/>
<rect x="314.5" y="282.5" width="55" height="3" fill="#000000" fill-opacity="1" stroke="#333" stroke-width="2"/>
<rect x="430.5" y="270.5" width="55" height="3" fill="#000000" fill-opacity="1" stroke="#333" stroke-width="2"/>
<rect x="430.5" y="282.5" width="55" height="3" fill="#000000" fill-opacity="1" stroke="#333" stroke-width="2"/>
<circle cx="362" cy="282" r="10" fill="#ffb6c1" fill-opacity="1" stroke="#333" stroke-width="2"/>
<circle cx="438" cy="282" r="10" fill="#ffb6c1" fill-opacity="1" stroke="#333" stroke-width="2"/>
<rect x="317.5" y="270.5" width="55" height="3" fill="#000000" fill-opacity="1" stroke="#333" stroke-width="2"/>
<rect x="317.5" y="283.5" width="55" height="3" fill="#000000" fill-opacity="1" stroke="#333" stroke-width="2"/>
<rect x="427.5" y="270.5" width="55" height="3" fill="#000000" fill-opacity="1" stroke="#333" stroke-width="2"/>
<rect x="427.5" y="283.5" width="55" height="3" fill="#000000" fill-opacity="1" stroke="#333" stroke-width="2"/>
<circle cx="362" cy="288" r="10" fill="#ffb6c1" fill-opacity="1" stroke="#333" stroke-width="2"/>
<circle cx="438" cy="288" r="10" fill="#ffb6c1" fill-opacity="1" stroke="#333" stroke-width="2"/>
<rect x="398" y="214" width="4" height="28" fill="#000000" fill-opacity="1" stroke="#333" stroke-width="2"/>
<rect x="380" y="220" width="4" height="24" fill="#000000" fill-opacity="1" stroke="#333" stroke-width="2"/>
<rect x="416" y="220" width="4" height="24" fill="#000000" fill-opacity="1" stroke="#333" stroke-width="2"/>
<circle cx="358" cy="295" r="14" fill="#ffb6c1" fill-opacity="1" stroke="#333" stroke-width="2"/>
<circle cx="442" cy="295" r="14" fill="#ffb6c1" fill-opacity="1" stroke="#333" stroke-width="2"/>
</svg>