<svg xmlns="http://www.w3.org/2000/svg" width="800" height="600" viewBox="0 0 800 600">
<rect width="100%" height="100%" fill="#1a1a2e"/>
<!-- step 0: 天空背景 (background) -->
<rect x="20" y="0" width="760" height="330" fill="#F7FBFF" fill-opacity="1" stroke="none" stroke-width="0"/>
<rect x="20" y="0" width="760" height="110" fill="#EAF5FF" fill-opacity="0.55" stroke="none" stroke-width="0"/>
<rect x="20" y="110" width="760" height="116" fill="#F2FAFF" fill-opacity="0.5" stroke="none" stroke-width="0"/>
<rect x="20" y="226" width="760" height="104" fill="#FFFFFF" fill-opacity="0.75" stroke="none" stroke-width="0"/>
<line x1="60" y1="306" x2="740" y2="306" stroke="#DDEFFF" stroke-width="2"/>
<!-- step 1: 地面 (ground) -->
<rect x="20" y="438" width="760" height="108" fill="#D9D2BD" fill-opacity="1" stroke="none" stroke-width="0"/>
<rect x="20" y="536" width="760" height="10" fill="#C8BEA4" fill-opacity="1" stroke="none" stroke-width="0"/>
<line x1="20" y1="440" x2="780" y2="440" stroke="#B7AD94" stroke-width="2"/>
<line x1="40" y1="502" x2="760" y2="502" stroke="#E4DDC9" stroke-width="2"/>
<!-- step 2: 道路 (structure) -->
<rect x="348" y="358" width="105" height="10" fill="#3F4448" fill-opacity="1" stroke="none" stroke-width="0"/>
<rect x="335" y="368" width="130" height="10" fill="#41464A" fill-opacity="1" stroke="none" stroke-width="0"/>
<rect x="323" y="378" width="155" height="10" fill="#43484C" fill-opacity="1" stroke="none" stroke-width="0"/>
<rect x="308" y="388" width="185" height="10" fill="#454A4F" fill-opacity="1" stroke="none" stroke-width="0"/>
<rect x="293" y="398" width="215" height="10" fill="#474C51" fill-opacity="1" stroke="none" stroke-width="0"/>
<rect x="278" y="408" width="245" height="10" fill="#494E53" fill-opacity="1" stroke="none" stroke-width="0"/>
<rect x="263" y="418" width="275" height="10" fill="#4B5055" fill-opacity="1" stroke="none" stroke-width="0"/>
<rect x="250" y="428" width="300" height="10" fill="#4D5257" fill-opacity="1" stroke="none" stroke-width="0"/>
<line x1="348" y1="358" x2="250" y2="438" stroke="#2B3034" stroke-width="3"/>
<line x1="452" y1="358" x2="550" y2="438" stroke="#2B3034" stroke-width="3"/>
<line x1="400" y1="364" x2="400" y2="379" stroke="#D8D5C8" stroke-width="4"/>
<line x1="400" y1="390" x2="400" y2="406" stroke="#D8D5C8" stroke-width="4"/>
<line x1="400" y1="418" x2="400" y2="435" stroke="#D8D5C8" stroke-width="5"/>
<!-- step 3: 云南大学校门牌坊 (structure) -->
<rect x="270" y="202.57894736842104" width="24" height="149.56140350877192" fill="#5A241F" fill-opacity="1" stroke="none" stroke-width="0"/>
<rect x="338" y="202.57894736842104" width="22" height="149.56140350877192" fill="#5A241F" fill-opacity="1" stroke="none" stroke-width="0"/>
<rect x="440" y="202.57894736842104" width="22" height="149.56140350877192" fill="#5A241F" fill-opacity="1" stroke="none" stroke-width="0"/>
<rect x="506" y="202.57894736842104" width="24" height="149.56140350877192" fill="#5A241F" fill-opacity="1" stroke="none" stroke-width="0"/>
<rect x="268" y="176.5263157894737" width="264" height="28.94736842105263" fill="#6B2B24" fill-opacity="1" stroke="none" stroke-width="0"/>
<rect x="260" y="161.08771929824562" width="280" height="15.43859649122807" fill="#4B1E1B" fill-opacity="1" stroke="none" stroke-width="0"/>
<rect x="325" y="145.64912280701753" width="150" height="13.508771929824562" fill="#4B1E1B" fill-opacity="1" stroke="none" stroke-width="0"/>
<rect x="357" y="136" width="86" height="9.649122807017545" fill="#4B1E1B" fill-opacity="1" stroke="none" stroke-width="0"/>
<rect x="281" y="217.05263157894737" width="58" height="17.36842105263158" fill="#6B2B24" fill-opacity="1" stroke="none" stroke-width="0"/>
<rect x="461" y="217.05263157894737" width="58" height="17.36842105263158" fill="#6B2B24" fill-opacity="1" stroke="none" stroke-width="0"/>
<rect x="271" y="336.70175438596493" width="258" height="15.43859649122807" fill="#5A241F" fill-opacity="1" stroke="none" stroke-width="0"/>
<rect x="260" y="350.2105263157895" width="280" height="5.7894736842105265" fill="#3E1917" fill-opacity="1" stroke="none" stroke-width="0"/>
<rect x="266" y="192.9298245614035" width="32" height="11.578947368421053" fill="#7A3429" fill-opacity="1" stroke="none" stroke-width="0"/>
<rect x="334" y="192.9298245614035" width="30" height="11.578947368421053" fill="#7A3429" fill-opacity="1" stroke="none" stroke-width="0"/>
<rect x="436" y="192.9298245614035" width="30" height="11.578947368421053" fill="#7A3429" fill-opacity="1" stroke="none" stroke-width="0"/>
<rect x="502" y="192.9298245614035" width="32" height="11.578947368421053" fill="#7A3429" fill-opacity="1" stroke="none" stroke-width="0"/>
<!-- step 4: 牌坊屋顶剪影细节 (detail) -->
<rect x="290" y="129" width="220" height="10" fill="#5B2418" fill-opacity="1" stroke="none" stroke-width="0"/>
<rect x="275" y="138" width="250" height="6" fill="#3A1710" fill-opacity="1" stroke="none" stroke-width="0"/>
<line x1="250" y1="141" x2="288" y2="134" stroke="#6E2B1D" stroke-width="8"/>
<line x1="288" y1="134" x2="330" y2="121" stroke="#6E2B1D" stroke-width="8"/>
<line x1="330" y1="121" x2="400" y2="106" stroke="#6E2B1D" stroke-width="8"/>
<line x1="400" y1="106" x2="470" y2="121" stroke="#6E2B1D" stroke-width="8"/>
<line x1="470" y1="121" x2="512" y2="134" stroke="#6E2B1D" stroke-width="8"/>
<line x1="512" y1="134" x2="550" y2="141" stroke="#6E2B1D" stroke-width="8"/>
<line x1="268" y1="143" x2="308" y2="139" stroke="#C9A15B" stroke-width="2"/>
<line x1="308" y1="139" x2="360" y2="127" stroke="#C9A15B" stroke-width="2"/>
<line x1="360" y1="127" x2="400" y2="117" stroke="#C9A15B" stroke-width="2"/>
<line x1="400" y1="117" x2="440" y2="127" stroke="#C9A15B" stroke-width="2"/>
<line x1="440" y1="127" x2="492" y2="139" stroke="#C9A15B" stroke-width="2"/>
<line x1="492" y1="139" x2="532" y2="143" stroke="#C9A15B" stroke-width="2"/>
<rect x="396" y="102" width="8" height="14" fill="#3A1710" fill-opacity="1" stroke="none" stroke-width="0"/>
<rect x="378" y="108" width="44" height="5" fill="#3A1710" fill-opacity="1" stroke="none" stroke-width="0"/>
<line x1="250" y1="141" x2="260" y2="131" stroke="#3A1710" stroke-width="3"/>
<line x1="550" y1="141" x2="540" y2="131" stroke="#3A1710" stroke-width="3"/>
<!-- step 5: 校门门洞线条 (detail) -->
<line x1="278.968253968254" y1="199" x2="521.031746031746" y2="199" stroke="#F4E6C8" stroke-width="3"/>
<line x1="300.7936507936508" y1="289" x2="300.7936507936508" y2="349" stroke="#F4E6C8" stroke-width="3"/>
<line x1="332.53968253968253" y1="289" x2="332.53968253968253" y2="349" stroke="#F4E6C8" stroke-width="3"/>
<line x1="300.7936507936508" y1="289" x2="308.73015873015873" y2="271" stroke="#F4E6C8" stroke-width="3"/>
<line x1="308.73015873015873" y1="271" x2="316.66666666666663" y2="263.8" stroke="#F4E6C8" stroke-width="3"/>
<line x1="316.66666666666663" y1="263.8" x2="332.53968253968253" y2="289" stroke="#F4E6C8" stroke-width="3"/>
<line x1="368.25396825396825" y1="277" x2="368.25396825396825" y2="349" stroke="#F4E6C8" stroke-width="4"/>
<line x1="431.74603174603175" y1="277" x2="431.74603174603175" y2="349" stroke="#F4E6C8" stroke-width="4"/>
<line x1="368.25396825396825" y1="277" x2="380.1587301587302" y2="250.6" stroke="#F4E6C8" stroke-width="4"/>
<line x1="380.1587301587302" y1="250.6" x2="400" y2="237.4" stroke="#F4E6C8" stroke-width="4"/>
<line x1="400" y1="237.4" x2="419.8412698412698" y2="250.6" stroke="#F4E6C8" stroke-width="4"/>
<line x1="419.8412698412698" y1="250.6" x2="431.74603174603175" y2="277" stroke="#F4E6C8" stroke-width="4"/>
<line x1="467.46031746031747" y1="289" x2="467.46031746031747" y2="349" stroke="#F4E6C8" stroke-width="3"/>
<line x1="499.2063492063492" y1="289" x2="499.2063492063492" y2="349" stroke="#F4E6C8" stroke-width="3"/>
<line x1="467.46031746031747" y1="289" x2="475.3968253968254" y2="271" stroke="#F4E6C8" stroke-width="3"/>
<line x1="475.3968253968254" y1="271" x2="483.33333333333337" y2="263.8" stroke="#F4E6C8" stroke-width="3"/>
<line x1="483.33333333333337" y1="263.8" x2="499.2063492063492" y2="289" stroke="#F4E6C8" stroke-width="3"/>
<line x1="275" y1="349" x2="525" y2="349" stroke="#F4E6C8" stroke-width="3"/>
<!-- step 6: 校名牌匾 (detail) -->
<rect x="346" y="168" width="108" height="24" fill="#F7E6B5" fill-opacity="1" stroke="none" stroke-width="0"/>
<rect x="344" y="166" width="112" height="4" fill="#5A2E1B" fill-opacity="1" stroke="none" stroke-width="0"/>
<rect x="344" y="194" width="112" height="4" fill="#5A2E1B" fill-opacity="1" stroke="none" stroke-width="0"/>
<rect x="344" y="168" width="4" height="28" fill="#5A2E1B" fill-opacity="1" stroke="none" stroke-width="0"/>
<rect x="452" y="168" width="4" height="28" fill="#5A2E1B" fill-opacity="1" stroke="none" stroke-width="0"/>
<line x1="356" y1="179" x2="368" y2="179" stroke="#5A2E1B" stroke-width="3"/>
<line x1="362" y1="173" x2="363" y2="190" stroke="#5A2E1B" stroke-width="3"/>
<line x1="380" y1="178" x2="394" y2="178" stroke="#5A2E1B" stroke-width="3"/>
<line x1="387" y1="173" x2="387" y2="190" stroke="#5A2E1B" stroke-width="3"/>
<line x1="406" y1="178" x2="418" y2="178" stroke="#5A2E1B" stroke-width="3"/>
<line x1="406" y1="189" x2="418" y2="189" stroke="#5A2E1B" stroke-width="3"/>
<line x1="429" y1="177" x2="440" y2="177" stroke="#5A2E1B" stroke-width="3"/>
<line x1="434" y1="173" x2="434" y2="190" stroke="#5A2E1B" stroke-width="3"/>
<!-- step 7: 道路前景标线与绿化 (foreground) -->
<rect x="395.90909090909093" y="439.8918918918919" width="8.181818181818182" height="15.135135135135135" fill="#F7E8B5" fill-opacity="0.9" stroke="none" stroke-width="0"/>
<rect x="394.8863636363636" y="462.5945945945946" width="10.227272727272727" height="17.027027027027028" fill="#F7E8B5" fill-opacity="0.9" stroke="none" stroke-width="0"/>
<rect x="393.8636363636364" y="489.0810810810811" width="12.272727272727273" height="18.91891891891892" fill="#F7E8B5" fill-opacity="0.9" stroke="none" stroke-width="0"/>
<line x1="344.77272727272725" y1="438" x2="305.9090909090909" y2="500.43243243243245" stroke="#F6F1D8" stroke-width="3"/>
<line x1="455.22727272727275" y1="438" x2="494.0909090909091" y2="500.43243243243245" stroke="#F6F1D8" stroke-width="3"/>
<ellipse cx="246.5909090909091" cy="485.2972972972973" rx="23.522727272727273" ry="8.513513513513514" fill="#2F6B3A" fill-opacity="1" stroke="none" stroke-width="0"/>
<ellipse cx="279.3181818181818" cy="480.56756756756755" rx="27.613636363636363" ry="11.35135135135135" fill="#2F6B3A" fill-opacity="1" stroke="none" stroke-width="0"/>
<ellipse cx="316.1363636363636" cy="486.2432432432432" rx="24.545454545454547" ry="9.45945945945946" fill="#2F6B3A" fill-opacity="1" stroke="none" stroke-width="0"/>
<rect x="220" y="485.2972972972973" width="120.68181818181817" height="17.027027027027028" fill="#2F6B3A" fill-opacity="1" stroke="none" stroke-width="0"/>
<ellipse cx="553.4090909090909" cy="485.2972972972973" rx="23.522727272727273" ry="8.513513513513514" fill="#2F6B3A" fill-opacity="1" stroke="none" stroke-width="0"/>
<ellipse cx="520.6818181818181" cy="480.56756756756755" rx="27.613636363636363" ry="11.35135135135135" fill="#2F6B3A" fill-opacity="1" stroke="none" stroke-width="0"/>
<ellipse cx="483.8636363636364" cy="486.2432432432432" rx="24.545454545454547" ry="9.45945945945946" fill="#2F6B3A" fill-opacity="1" stroke="none" stroke-width="0"/>
<rect x="459.3181818181818" y="485.2972972972973" width="120.68181818181817" height="17.027027027027028" fill="#2F6B3A" fill-opacity="1" stroke="none" stroke-width="0"/>
<line x1="224.0909090909091" y1="489.0810810810811" x2="231.25" y2="475.8378378378378" stroke="#8DBB5A" stroke-width="2"/>
<line x1="277.27272727272725" y1="485.2972972972973" x2="286.47727272727275" y2="466.3783783783784" stroke="#8DBB5A" stroke-width="2"/>
<line x1="575.9090909090909" y1="489.0810810810811" x2="568.75" y2="475.8378378378378" stroke="#8DBB5A" stroke-width="2"/>
<line x1="522.7272727272727" y1="485.2972972972973" x2="513.5227272727273" y2="466.3783783783784" stroke="#8DBB5A" stroke-width="2"/>
</svg>