<?xml version="1.0" encoding="UTF-8"?>
<svg xmlns="http://www.w3.org/2000/svg" width="800" height="600" viewBox="0 0 800 600">
<rect width="100%" height="100%" fill="#fffef5"/>
<circle cx="400" cy="340" r="95" fill="#000000" fill-opacity="1" stroke="#333" stroke-width="2"/>
<circle cx="400" cy="340" r="88" fill="#ffffff" fill-opacity="1" stroke="#333" stroke-width="2"/>
<circle cx="345" cy="255" r="40" fill="#000000" fill-opacity="1" stroke="#333" stroke-width="2"/>
<circle cx="345" cy="257" r="32" fill="#ffffff" fill-opacity="1" stroke="#333" stroke-width="2"/>
<circle cx="455" cy="255" r="40" fill="#000000" fill-opacity="1" stroke="#333" stroke-width="2"/>
<circle cx="455" cy="257" r="32" fill="#ffffff" fill-opacity="1" stroke="#333" stroke-width="2"/>
<circle cx="370" cy="320" r="8" fill="#000000" fill-opacity="1" stroke="#333" stroke-width="2"/>
<circle cx="430" cy="320" r="8" fill="#000000" fill-opacity="1" stroke="#333" stroke-width="2"/>
<circle cx="400" cy="342" r="7" fill="#ff9bb3" fill-opacity="1" stroke="#333" stroke-width="2"/>
<rect x="398.5" y="347" width="3" height="16" fill="#000000" fill-opacity="1" stroke="#333" stroke-width="2"/>
<rect x="322.5" y="336.5" width="45" height="3" fill="#000000" fill-opacity="1" stroke="#333" stroke-width="2"/>
<rect x="322.5" y="350.5" width="45" height="3" fill="#000000" fill-opacity="1" stroke="#333" stroke-width="2"/>
<rect x="322.5" y="364.5" width="45" height="3" fill="#000000" fill-opacity="1" stroke="#333" stroke-width="2"/>
<rect x="432.5" y="336.5" width="45" height="3" fill="#000000" fill-opacity="1" stroke="#333" stroke-width="2"/>
<rect x="432.5" y="350.5" width="45" height="3" fill="#000000" fill-opacity="1" stroke="#333" stroke-width="2"/>
<rect x="432.5" y="364.5" width="45" height="3" fill="#000000" fill-opacity="1" stroke="#333" stroke-width="2"/>
<rect x="390.5" y="341" width="3" height="22" fill="#000000" fill-opacity="1" stroke="#333" stroke-width="2"/>
<rect x="406.5" y="341" width="3" height="22" fill="#000000" fill-opacity="1" stroke="#333" stroke-width="2"/>
<rect x="319.5" y="336.5" width="45" height="3" fill="#000000" fill-opacity="1" stroke="#333" stroke-width="2"/>
<rect x="317.5" y="348.5" width="45" height="3" fill="#000000" fill-opacity="1" stroke="#333" stroke-width="2"/>
<rect x="319.5" y="360.5" width="45" height="3" fill="#000000" fill-opacity="1" stroke="#333" stroke-width="2"/>
<rect x="435.5" y="336.5" width="45" height="3" fill="#000000" fill-opacity="1" stroke="#333" stroke-width="2"/>
<rect x="437.5" y="348.5" width="45" height="3" fill="#000000" fill-opacity="1" stroke="#333" stroke-width="2"/>
<rect x="435.5" y="360.5" width="45" height="3" fill="#000000" fill-opacity="1" stroke="#333" stroke-width="2"/>
<circle cx="358" cy="342" r="10" fill="#ffb6c1" fill-opacity="1" stroke="#333" stroke-width="2"/>
<circle cx="442" cy="342" r="10" fill="#ffb6c1" fill-opacity="1" stroke="#333" stroke-width="2"/>
<circle cx="345" cy="255" r="20" fill="#ffb6c1" fill-opacity="1" stroke="#333" stroke-width="2"/>
<circle cx="455" cy="255" r="20" fill="#ffb6c1" fill-opacity="1" stroke="#333" stroke-width="2"/>
<circle cx="352" cy="342" r="12" fill="#ffd6dc" fill-opacity="1" stroke="#333" stroke-width="2"/>
<circle cx="448" cy="342" r="12" fill="#ffd6dc" fill-opacity="1" stroke="#333" stroke-width="2"/>
<rect x="398" y="265.5" width="4" height="25" fill="#000000" fill-opacity="1" stroke="#333" stroke-width="2"/>
<rect x="380" y="272" width="4" height="20" fill="#000000" fill-opacity="1" stroke="#333" stroke-width="2"/>
<rect x="416" y="272" width="4" height="20" fill="#000000" fill-opacity="1" stroke="#333" stroke-width="2"/>
</svg>