<?xml version="1.0" encoding="UTF-8"?>
<svg xmlns="http://www.w3.org/2000/svg" width="800" height="600" viewBox="0 0 800 600">
<rect width="100%" height="100%" fill="#fffef8"/>
<g id="step-0" data-label="画头和耳朵">
<ellipse cx="400" cy="305.23809523809524" rx="97.9381443298969" ry="62.96296296296296" stroke="#222222" stroke-width="4.123711340206185" stroke-linecap="round" stroke-linejoin="round" opacity="1" fill="none"/>
<polygon points="317.53,260.26 348.45,201.8 381.44,246.77" stroke="#222222" stroke-width="4.123711340206185" stroke-linecap="round" stroke-linejoin="round" opacity="1" fill="none"/>
<polygon points="418.56,246.77 451.55,201.8 482.47,260.26" stroke="#222222" stroke-width="4.123711340206185" stroke-linecap="round" stroke-linejoin="round" opacity="1" fill="none"/>
</g>
<g id="step-1" data-label="画身体和前爪">
<ellipse cx="400" cy="398" rx="72.97297297297298" ry="62.83333333333333" stroke="#222222" stroke-width="4.333333333333333" stroke-linecap="round" stroke-linejoin="round" opacity="1" fill="none"/>
<path d="M 369.59,367.67 Q 364.52702702702703,414.25 371.1148648648649,434.29166666666663 T 377.7,454.33" stroke="#222222" stroke-width="4.333333333333333" stroke-linecap="round" stroke-linejoin="round" opacity="1" fill="none"/>
<path d="M 430.41,367.67 Q 435.47297297297297,414.25 428.8851351351351,434.29166666666663 T 422.3,454.33" stroke="#222222" stroke-width="4.333333333333333" stroke-linecap="round" stroke-linejoin="round" opacity="1" fill="none"/>
</g>
<g id="step-2" data-label="画表情胡须">
<circle cx="359.92366412213744" cy="259.3924050632911" r="11.39240506329114" fill="#222222" opacity="1"/>
<circle cx="440.07633587786256" cy="259.3924050632911" r="11.39240506329114" fill="#222222" opacity="1"/>
<polygon points="390.84,291.29 409.16,291.29 400,318.63" stroke="#222222" stroke-width="4.556962025316456" stroke-linecap="round" stroke-linejoin="round" opacity="1" fill="#222222"/>
<line x1="326.7175572519084" y1="298.126582278481" x2="379.3893129770992" y2="307.24050632911394" stroke="#222222" stroke-width="6.835443037974684" stroke-linecap="round" stroke-linejoin="round" opacity="1" fill="none"/>
<line x1="329.00763358778624" y1="334.5822784810127" x2="379.3893129770992" y2="320.9113924050633" stroke="#222222" stroke-width="6.835443037974684" stroke-linecap="round" stroke-linejoin="round" opacity="1" fill="none"/>
<line x1="473.2824427480916" y1="298.126582278481" x2="420.6106870229008" y2="307.24050632911394" stroke="#222222" stroke-width="6.835443037974684" stroke-linecap="round" stroke-linejoin="round" opacity="1" fill="none"/>
<line x1="470.99236641221376" y1="334.5822784810127" x2="420.6106870229008" y2="320.9113924050633" stroke="#222222" stroke-width="6.835443037974684" stroke-linecap="round" stroke-linejoin="round" opacity="1" fill="none"/>
</g>
<g id="step-3" data-label="画尾巴">
<path d="M 465.71,412 Q 550.289156626506,388 543.2409638554217,343 Q 536.1927710843373,298 514.5060240963855,307 T 492.82,316" stroke="#222222" stroke-width="6" stroke-linecap="round" stroke-linejoin="round" opacity="1" fill="none"/>
</g>
</svg>