<svg xmlns="http://www.w3.org/2000/svg" width="800" height="600" viewBox="0 0 800 600"><rect width="100%" height="100%" fill="#fff"/><ellipse cx="400.62992125984255" cy="340.15748031496065" rx="94.48818897637796" ry="56.69291338582678" fill="#FFD700" stroke="#CC9900" stroke-width="1.5"/>
<circle cx="400.62992125984255" cy="245.6692913385827" r="56.69291338582678" fill="#FFD700" stroke="#CC9900" stroke-width="1.5"/>
<polygon points="317.4803149606299,200.31496062992127 294.80314960629926,132.28346456692915 362.8346456692914,188.9763779527559" fill="#FFD700" stroke="#CC9900" stroke-width="1.5"/>
<polygon points="483.77952755905517,200.31496062992127 506.45669291338584,132.28346456692915 438.4251968503937,188.9763779527559" fill="#FFD700" stroke="#CC9900" stroke-width="1.5"/>
<circle cx="376.0629921259843" cy="236.22047244094492" r="9.448818897637796" fill="#000000" stroke="none" stroke-width="0"/>
<circle cx="432.7559055118111" cy="236.22047244094492" r="9.448818897637796" fill="#000000" stroke="none" stroke-width="0"/>
<polygon points="393.0708661417323,249.4488188976378 408.18897637795277,249.4488188976378 400.62992125984255,260.78740157480314" fill="#FFB6C1" stroke="#FFB6C1" stroke-width="1"/>
<line x1="400.62992125984255" y1="260.78740157480314" x2="400.62992125984255" y2="279.68503937007875" stroke="#CC9900" stroke-width="1.5"/>
<line x1="400.62992125984255" y1="279.68503937007875" x2="377.9527559055118" y2="287.244094488189" stroke="#CC9900" stroke-width="1.5"/>
<line x1="400.62992125984255" y1="279.68503937007875" x2="423.3070866141733" y2="287.244094488189" stroke="#CC9900" stroke-width="1.5"/>
<line x1="351.496062992126" y1="245.6692913385827" x2="317.4803149606299" y2="238.11023622047244" stroke="#CC9900" stroke-width="1.2"/>
<line x1="351.496062992126" y1="257.00787401574803" x2="309.9212598425197" y2="257.00787401574803" stroke="#CC9900" stroke-width="1.2"/>
<line x1="351.496062992126" y1="268.3464566929134" x2="317.4803149606299" y2="275.90551181102364" stroke="#CC9900" stroke-width="1.2"/>
<line x1="449.76377952755905" y1="245.6692913385827" x2="483.77952755905517" y2="238.11023622047244" stroke="#CC9900" stroke-width="1.2"/>
<line x1="449.76377952755905" y1="257.00787401574803" x2="491.3385826771654" y2="257.00787401574803" stroke="#CC9900" stroke-width="1.2"/>
<line x1="449.76377952755905" y1="268.3464566929134" x2="483.77952755905517" y2="275.90551181102364" stroke="#CC9900" stroke-width="1.2"/>
<polyline points="483.77952755905517,302.3622047244095 521.5748031496063,287.244094488189 536.6929133858268,309.9212598425197 521.5748031496063,332.5984251968504" fill="none" stroke="#FFD700" stroke-width="3"/></svg>