<svg xmlns="http://www.w3.org/2000/svg" width="800" height="600" viewBox="0 0 800 600">
<rect width="100%" height="100%" fill="#1a1a2e"/>
<!-- step 0: 天空 (undefined) -->
<rect x="20" y="0" width="760" height="330" fill="#EAF6FF" fill-opacity="1" stroke="none" stroke-width="0"/>
<rect x="20" y="0" width="760" height="84" fill="#F7FBFF" fill-opacity="0.55" stroke="none" stroke-width="0"/>
<rect x="20" y="234" width="760" height="68" fill="#DFF1FF" fill-opacity="0.35" stroke="none" stroke-width="0"/>
<!-- step 1: 地面 (undefined) -->
<rect x="20" y="438" width="760" height="108" fill="#DCE4D2" fill-opacity="1" stroke="none" stroke-width="0"/>
<line x1="20" y1="438" x2="780" y2="438" stroke="#B7C7B0" stroke-width="3"/>
<rect x="20" y="438" width="760" height="16" fill="#C9D6C2" fill-opacity="0.55" stroke="none" stroke-width="0"/>
<!-- step 2: 道路 (undefined) -->
<rect x="355" y="-40" width="90" height="10" fill="#4A4A4A" fill-opacity="1" stroke="none" stroke-width="0"/>
<rect x="340" y="-30" width="120" height="10" fill="#4D4D4D" fill-opacity="1" stroke="none" stroke-width="0"/>
<rect x="325" y="-20" width="150" height="10" fill="#505050" fill-opacity="1" stroke="none" stroke-width="0"/>
<rect x="310" y="-10" width="180" height="10" fill="#535353" fill-opacity="1" stroke="none" stroke-width="0"/>
<rect x="295" y="0" width="210" height="10" fill="#565656" fill-opacity="1" stroke="none" stroke-width="0"/>
<rect x="280" y="10" width="240" height="10" fill="#595959" fill-opacity="1" stroke="none" stroke-width="0"/>
<rect x="265" y="20" width="270" height="10" fill="#5C5C5C" fill-opacity="1" stroke="none" stroke-width="0"/>
<rect x="250" y="30" width="300" height="10" fill="#606060" fill-opacity="1" stroke="none" stroke-width="0"/>
<line x1="355" y1="-40" x2="250" y2="40" stroke="#2F2F2F" stroke-width="3"/>
<line x1="445" y1="-40" x2="550" y2="40" stroke="#2F2F2F" stroke-width="3"/>
<line x1="400" y1="-32" x2="400" y2="36" stroke="#D8D8D8" stroke-width="2"/>
<!-- step 3: 云南大学校门牌坊 (undefined) -->
<rect x="288.79432624113474" y="-12.95617529880478" width="29.78723404255319" height="105.1792828685259" fill="#7A1F18" fill-opacity="1" stroke="none" stroke-width="0"/>
<rect x="481.41843971631204" y="-12.95617529880478" width="29.78723404255319" height="105.1792828685259" fill="#7A1F18" fill-opacity="1" stroke="none" stroke-width="0"/>
<rect x="281.8439716312057" y="-59.41035856573705" width="236.31205673758865" height="24.54183266932271" fill="#8E2A20" fill-opacity="1" stroke="none" stroke-width="0"/>
<rect x="260.9929078014185" y="-82.199203187251" width="278.0141843971631" height="14.02390438247012" fill="#6E1713" fill-opacity="1" stroke="none" stroke-width="0"/>
<rect x="285.8156028368794" y="-97.97609561752988" width="228.36879432624113" height="15.776892430278885" fill="#7A1F18" fill-opacity="1" stroke="none" stroke-width="0"/>
<rect x="325.531914893617" y="-112" width="148.93617021276594" height="12.270916334661354" fill="#5C120F" fill-opacity="1" stroke="none" stroke-width="0"/>
<rect x="371.20567375886526" y="-34.86852589641434" width="57.5886524822695" height="15.776892430278885" fill="#8E2A20" fill-opacity="1" stroke="none" stroke-width="0"/>
<rect x="260" y="92.22310756972112" width="57.5886524822695" height="15.776892430278885" fill="#7A1F18" fill-opacity="1" stroke="none" stroke-width="0"/>
<rect x="482.4113475177305" y="92.22310756972112" width="57.5886524822695" height="15.776892430278885" fill="#7A1F18" fill-opacity="1" stroke="none" stroke-width="0"/>
<line x1="342.4113475177305" y1="92.22310756972112" x2="342.4113475177305" y2="-34.86852589641434" stroke="#6E1713" stroke-width="5"/>
<line x1="457.5886524822695" y1="-34.86852589641434" x2="457.5886524822695" y2="92.22310756972112" stroke="#6E1713" stroke-width="5"/>
<line x1="260.9929078014185" y1="-68.17529880478088" x2="539.0070921985815" y2="-68.17529880478088" stroke="#5C120F" stroke-width="4"/>
<!-- step 4: 校门匾额 (undefined) -->
<rect x="-71" y="45" width="142" height="26" fill="#5B2A1E" fill-opacity="1" stroke="none" stroke-width="0"/>
<rect x="-67" y="42" width="134" height="4" fill="#D9C18A" fill-opacity="1" stroke="none" stroke-width="0"/>
<rect x="-67" y="70" width="134" height="4" fill="#D9C18A" fill-opacity="1" stroke="none" stroke-width="0"/>
<rect x="-46" y="55" width="22" height="3" fill="#E8D9A7" fill-opacity="1" stroke="none" stroke-width="0"/>
<rect x="-12" y="55" width="22" height="3" fill="#E8D9A7" fill-opacity="1" stroke="none" stroke-width="0"/>
<rect x="22" y="55" width="22" height="3" fill="#E8D9A7" fill-opacity="1" stroke="none" stroke-width="0"/>
<!-- step 5: 两侧绿化剪影 (undefined) -->
<rect x="102.32558139534882" y="15.197183098591545" width="215.81395348837208" height="21.80281690140845" fill="#244D34" fill-opacity="1" stroke="none" stroke-width="0"/>
<rect x="481.8604651162791" y="15.197183098591545" width="215.81395348837208" height="21.80281690140845" fill="#244D34" fill-opacity="1" stroke="none" stroke-width="0"/>
<ellipse cx="132.09302325581393" cy="0.6619718309859115" rx="52.093023255813954" ry="33.91549295774648" fill="#2F6B43" fill-opacity="1" stroke="none" stroke-width="0"/>
<ellipse cx="188.65116279069767" cy="-9.028169014084511" rx="58.04651162790697" ry="39.97183098591549" fill="#27583A" fill-opacity="1" stroke="none" stroke-width="0"/>
<ellipse cx="243.72093023255815" cy="5.5070422535211225" rx="44.651162790697676" ry="29.070422535211264" fill="#3A7A4A" fill-opacity="1" stroke="none" stroke-width="0"/>
<ellipse cx="295.8139534883721" cy="10.352112676056333" rx="40.18604651162791" ry="26.64788732394366" fill="#2B603D" fill-opacity="1" stroke="none" stroke-width="0"/>
<line x1="99.3488372093023" y1="37" x2="319.62790697674416" y2="37" stroke="#1F432F" stroke-width="3"/>
<ellipse cx="667.9069767441861" cy="0.6619718309859115" rx="52.093023255813954" ry="33.91549295774648" fill="#2F6B43" fill-opacity="1" stroke="none" stroke-width="0"/>
<ellipse cx="611.3488372093024" cy="-9.028169014084511" rx="58.04651162790697" ry="39.97183098591549" fill="#27583A" fill-opacity="1" stroke="none" stroke-width="0"/>
<ellipse cx="556.2790697674418" cy="5.5070422535211225" rx="44.651162790697676" ry="29.070422535211264" fill="#3A7A4A" fill-opacity="1" stroke="none" stroke-width="0"/>
<ellipse cx="504.1860465116279" cy="10.352112676056333" rx="40.18604651162791" ry="26.64788732394366" fill="#2B603D" fill-opacity="1" stroke="none" stroke-width="0"/>
<line x1="480.37209302325584" y1="37" x2="700.6511627906978" y2="37" stroke="#1F432F" stroke-width="3"/>
</svg>